<?xml version="1.0" encoding="utf-8"?>
<!-- Generator: Adobe Illustrator 18.0.0, SVG Export Plug-In . SVG Version: 6.00 Build 0)  -->
<!DOCTYPE svg PUBLIC "-//W3C//DTD SVG 1.1//EN" "http://www.w3.org/Graphics/SVG/1.1/DTD/svg11.dtd">
<svg version="1.1" id="Layer_1" xmlns="http://www.w3.org/2000/svg" xmlns:xlink="http://www.w3.org/1999/xlink" x="0px" y="0px"
	 viewBox="0 0 79 32" enable-background="new 0 0 79 32" xml:space="preserve">
<defs>
	<filter id="Adobe_OpacityMaskFilter" filterUnits="userSpaceOnUse" x="1" y="0" width="78" height="31.6">
		<feColorMatrix  type="matrix" values="1 0 0 0 0  0 1 0 0 0  0 0 1 0 0  0 0 0 1 0"/>
	</filter>
</defs>
<mask maskUnits="userSpaceOnUse" x="1" y="0" width="78" height="31.6" id="mask0_2_">
	<rect x="-1154" y="-21" fill="#002060" filter="url(#Adobe_OpacityMaskFilter)" width="1440" height="146"/>
</mask>
<g mask="url(#mask0_2_)">
	<g opacity="0.4">
		<circle cx="77.3" cy="1.8" r="1.8"/>
		<circle cx="77.2" cy="15.8" r="1.8"/>
		<circle cx="77.2" cy="29.8" r="1.8"/>
		<circle cx="62.3" cy="1.8" r="1.8"/>
		<circle cx="62.3" cy="15.8" r="1.8"/>
		<circle cx="62.3" cy="29.8" r="1.8"/>
		<circle cx="47.4" cy="1.8" r="1.8"/>
		<circle cx="47.4" cy="15.8" r="1.8"/>
		<circle cx="47.4" cy="29.8" r="1.8"/>
		<circle cx="32.6" cy="1.8" r="1.8"/>
		<circle cx="32.6" cy="15.8" r="1.8"/>
		<circle cx="32.6" cy="29.8" r="1.8"/>
		<circle cx="17.7" cy="1.8" r="1.8"/>
		<circle cx="17.7" cy="15.8" r="1.8"/>
		<circle cx="17.7" cy="29.8" r="1.8"/>
		<circle cx="2.8" cy="1.8" r="1.8"/>
		<circle cx="2.7" cy="15.8" r="1.8"/>
		<circle cx="2.7" cy="29.8" r="1.8"/>
	</g>
</g>
</svg>
